# xmcd
#
# Track frame offsets:
#	150
#	14105
#	27249
#	38840
#	55219
#	70174
#	83833
#	99209
#
# Disc length: 1526 seconds
#
# Revision: 1
# Processed by: cddbd v1.5.2PL0 Copyright (c) Steve Scherf et al.
# Submitted via: audiograbber 1.83.01
#
DISCID=5f05f408
DTITLE=George Strait - Cowboy Spirit
DYEAR=2011
DGENRE=Country
TTITLE0=Love Without End, Amen
TTITLE1=Troubadour
TTITLE2=The Fireman
TTITLE3=Cowboys Like Us
TTITLE4=All My Ex's Live in Texas
TTITLE5=You Know Me Better Thanh That
TTITLE6=So Much Like My Dad
TTITLE7=The Best Day
EXTD=
EXTT0=
EXTT1=
EXTT2=
EXTT3=
EXTT4=
EXTT5=
EXTT6=
EXTT7=
PLAYORDER=
